Coordinates
nRows=183
nColumns=2
inDegrees=yes
endheader
time	ankle_angle_r	
3.56227	 -4.348956	
3.62477	 -4.351965	
3.68726	 -4.362580	
3.74976	 -4.333493	
3.81226	 -4.310506	
3.87475	 -4.273326	
3.93725	 -4.221354	
3.99974	 -4.228395	
4.06224	 -4.223846	
4.12474	 -4.217040	
4.18723	 -4.270235	
4.24973	 -4.301354	
4.31222	 -4.303492	
4.37472	 -4.268447	
4.43722	 -4.200185	
4.49971	 -4.199675	
4.56221	 -4.218589	
4.6247	 -4.235797	
4.6872	 -4.298660	
4.7497	 -4.333783	
4.81219	 -4.357748	
4.87469	 -4.394122	
4.93718	 -4.378226	
4.99968	 -4.332321	
5.06218	 -4.314681	
5.12467	 -4.350670	
5.18717	 -4.371657	
5.24966	 -4.332642	
5.31216	 -4.321501	
5.37466	 -4.302466	
5.43715	 -4.223440	
5.49965	 -4.197596	
5.56214	 -4.230213	
5.62464	 -4.261062	
5.68714	 -4.296418	
5.74963	 -4.299167	
5.81213	 -4.282767	
5.87462	 -4.273864	
5.93712	 -4.238836	
5.99962	 -4.223271	
6.06211	 -4.235275	
6.12461	 -4.220931	
6.1871	 -4.238358	
6.2496	 -4.312288	
6.3121	 -4.380120	
6.37459	 -4.410238	
6.43709	 -4.382276	
6.49958	 -4.351963	
6.56208	 -4.363363	
6.62458	 -4.368509	
6.68707	 -4.395275	
6.74957	 -4.432746	
6.81206	 -4.426846	
6.87456	 -4.421056	
6.93706	 -4.395978	
6.99955	 -4.361465	
7.06205	 -4.371004	
7.12454	 -4.345469	
7.18704	 -4.320991	
7.24954	 -4.383210	
7.31203	 -4.435301	
7.37453	 -4.433636	
7.43702	 -4.403715	
7.49952	 -4.381342	
7.56202	 -4.382128	
7.62451	 -4.341379	
7.68701	 -4.344301	
7.7495	 -4.435870	
7.812	 -4.459962	
7.8745	 -4.413515	
7.93699	 -4.361837	
7.99949	 -4.329991	
8.06198	 -4.341574	
8.12448	 -4.329927	
8.18698	 -4.313745	
8.24947	 -4.325973	
8.31197	 -4.320871	
8.37446	 -4.328712	
8.43696	 -4.296468	
8.49946	 -4.209697	
8.56195	 -4.199187	
8.62445	 -4.228172	
8.68694	 -4.248776	
8.74944	 -4.287356	
8.81194	 -4.286439	
8.87443	 -4.266024	
8.93693	 -4.253303	
8.99942	 -4.246405	
9.06192	 -4.269359	
9.12442	 -4.265668	
9.18691	 -4.296169	
9.24941	 -4.386032	
9.3119	 -4.382531	
9.3744	 -4.360189	
9.4369	 -4.386674	
9.49939	 -4.356764	
9.56189	 -4.328164	
9.62438	 -4.344772	
9.68688	 -4.347293	
9.74938	 -4.334477	
9.81187	 -4.325103	
9.87437	 -4.314631	
9.93686	 -4.265146	
9.99936	 -4.218068	
10.0619	 -4.232737	
10.1244	 -4.236966	
10.1868	 -4.236526	
10.2493	 -4.283846	
10.3118	 -4.299555	
10.3743	 -4.275975	
10.4368	 -4.271439	
10.4993	 -4.259427	
10.5618	 -4.238753	
10.6243	 -4.249054	
10.6868	 -4.305866	
10.7493	 -4.375854	
10.8118	 -4.413779	
10.8743	 -4.430317	
10.9368	 -4.398360	
10.9993	 -4.314988	
11.0618	 -4.278318	
11.1243	 -4.296413	
11.1868	 -4.315575	
11.2493	 -4.324409	
11.3118	 -4.314149	
11.3743	 -4.308338	
11.4368	 -4.291772	
11.4993	 -4.236766	
11.5618	 -4.216206	
11.6243	 -4.231342	
11.6868	 -4.236002	
11.7492	 -4.268095	
11.8117	 -4.299972	
11.8742	 -4.287333	
11.9367	 -4.255747	
11.9992	 -4.222375	
12.0617	 -4.210256	
12.1242	 -4.234491	
12.1867	 -4.299578	
12.2492	 -4.376889	
12.3117	 -4.401623	
12.3742	 -4.411584	
12.4367	 -4.423061	
12.4992	 -4.367405	
12.5617	 -4.306772	
12.6242	 -4.278549	
12.6867	 -4.244167	
12.7492	 -4.252150	
12.8117	 -4.280500	
12.8742	 -4.289655	
12.9367	 -4.299011	
12.9992	 -4.262635	
13.0617	 -4.212672	
13.1242	 -4.212140	
13.1867	 -4.219441	
13.2492	 -4.245704	
13.3116	 -4.284930	
13.3741	 -4.283538	
13.4366	 -4.267091	
13.4991	 -4.251967	
13.5616	 -4.266466	
13.6241	 -4.312913	
13.6866	 -4.324120	
13.7491	 -4.348154	
13.8116	 -4.408991	
13.8741	 -4.433081	
13.9366	 -4.424529	
13.9991	 -4.383512	
14.0616	 -4.330132	
14.1241	 -4.297676	
14.1866	 -4.250186	
14.2491	 -4.233667	
14.3116	 -4.270196	
14.3741	 -4.291087	
14.4366	 -4.298571	
14.4991	 -4.275777	
14.5616	 -4.237593	
14.6241	 -4.231883	
14.6866	 -4.211552	
14.7491	 -4.221300	
14.8116	 -4.281627	
14.874	 -4.300160	
14.9365	 -4.302858	
